<svg width="161" height="25" viewBox="0 0 161 25" fill="none" xmlns="http://www.w3.org/2000/svg">
<path d="M0.508 0.437998H4.633V20.436H16.612V24H0.508V0.437998ZM25.8814 14.76L17.0374 0.437998H21.8224L28.0594 10.998L34.1974 0.437998H38.8174L30.0064 14.76V24H25.8814V14.76ZM45.1018 0.437998H56.3548C58.9508 0.437998 60.8978 0.998998 62.1958 2.121C63.4938 3.243 64.1428 4.805 64.1428 6.807C64.1428 7.929 63.9778 8.864 63.6478 9.612C63.3178 10.338 62.9328 10.932 62.4928 11.394C62.0528 11.834 61.6128 12.153 61.1728 12.351C60.7548 12.549 60.4468 12.681 60.2488 12.747V12.813C60.6008 12.857 60.9748 12.967 61.3708 13.143C61.7888 13.319 62.1738 13.605 62.5258 14.001C62.8778 14.375 63.1638 14.87 63.3838 15.486C63.6258 16.102 63.7468 16.872 63.7468 17.796C63.7468 19.182 63.8458 20.447 64.0438 21.591C64.2638 22.713 64.5938 23.516 65.0338 24H60.6118C60.3038 23.494 60.1168 22.933 60.0508 22.317C60.0068 21.701 59.9848 21.107 59.9848 20.535C59.9848 19.457 59.9188 18.533 59.7868 17.763C59.6548 16.971 59.4128 16.322 59.0608 15.816C58.7088 15.288 58.2248 14.903 57.6088 14.661C57.0148 14.419 56.2448 14.298 55.2988 14.298H49.2268V24H45.1018V0.437998ZM49.2268 11.163H55.9918C57.3118 11.163 58.3128 10.855 58.9948 10.239C59.6768 9.601 60.0178 8.655 60.0178 7.401C60.0178 6.653 59.9078 6.048 59.6878 5.586C59.4678 5.102 59.1598 4.728 58.7638 4.464C58.3898 4.2 57.9498 4.024 57.4438 3.936C56.9598 3.848 56.4538 3.804 55.9258 3.804H49.2268V11.163ZM72.2972 0.437998H76.4222V24H72.2972V0.437998ZM85.3427 0.437998H89.4677V9.81H100.193V0.437998H104.318V24H100.193V13.374H89.4677V24H85.3427V0.437998ZM112.953 0.437998H117.078V14.166C117.078 14.958 117.111 15.761 117.177 16.575C117.265 17.389 117.485 18.126 117.837 18.786C118.211 19.424 118.761 19.952 119.487 20.37C120.235 20.788 121.28 20.997 122.622 20.997C123.964 20.997 124.998 20.788 125.724 20.37C126.472 19.952 127.022 19.424 127.374 18.786C127.748 18.126 127.968 17.389 128.034 16.575C128.122 15.761 128.166 14.958 128.166 14.166V0.437998H132.291V15.519C132.291 17.037 132.06 18.357 131.598 19.479C131.136 20.601 130.476 21.547 129.618 22.317C128.782 23.065 127.77 23.626 126.582 24C125.394 24.374 124.074 24.561 122.622 24.561C121.17 24.561 119.85 24.374 118.662 24C117.474 23.626 116.451 23.065 115.593 22.317C114.757 21.547 114.108 20.601 113.646 19.479C113.184 18.357 112.953 17.037 112.953 15.519V0.437998ZM145.118 10.305H151.85C152.84 10.305 153.665 10.03 154.325 9.48C154.985 8.908 155.315 8.094 155.315 7.038C155.315 5.85 155.018 5.014 154.424 4.53C153.83 4.046 152.972 3.804 151.85 3.804H145.118V10.305ZM140.993 0.437998H152.444C154.556 0.437998 156.25 0.921999 157.526 1.89C158.802 2.858 159.44 4.321 159.44 6.279C159.44 7.467 159.143 8.49 158.549 9.348C157.977 10.184 157.152 10.833 156.074 11.295V11.361C157.526 11.669 158.626 12.362 159.374 13.44C160.122 14.496 160.496 15.827 160.496 17.433C160.496 18.357 160.331 19.226 160.001 20.04C159.671 20.832 159.154 21.525 158.45 22.119C157.746 22.691 156.844 23.153 155.744 23.505C154.644 23.835 153.335 24 151.817 24H140.993V0.437998ZM145.118 20.634H152.411C153.665 20.634 154.633 20.315 155.315 19.677C156.019 19.017 156.371 18.093 156.371 16.905C156.371 15.739 156.019 14.848 155.315 14.232C154.633 13.594 153.665 13.275 152.411 13.275H145.118V20.634Z" fill="url(#paint0_linear_539_29)"/>
<defs>
<linearGradient id="paint0_linear_539_29" x1="3.93296" y1="-3.28572" x2="155.093" y2="66.2657" gradientUnits="userSpaceOnUse">
<stop stop-color="#FF4081"/>
<stop offset="1" stop-color="#2196F3"/>
</linearGradient>
</defs>
</svg>
